HIERARCHY
ROOT Pelvis
{
	OFFSET 0.000000 0.000000 0.000000
	CHANNELS 6 Xposition Yposition Zposition Xrotation Yrotation Zrotation
	JOINT LeftUpLeg_virtual
	{
		OFFSET 0.000000 0.000000 0.000000
		CHANNELS 3 Xrotation Yrotation Zrotation
		JOINT LeftUpLeg
		{
			OFFSET 18.735201 -5.666702 -4.541200
			CHANNELS 3 Xrotation Yrotation Zrotation
			JOINT LeftLeg
			{
				OFFSET -0.021200 -31.938179 0.493100
				CHANNELS 3 Xrotation Yrotation Zrotation
				JOINT LeftFoot
				{
					OFFSET 0.021200 -31.938179 -4.336299
					CHANNELS 3 Xrotation Yrotation Zrotation
					JOINT LeftToeBase
					{
						OFFSET 0.943001 -26.722000 15.023500
						CHANNELS 3 Xrotation Yrotation Zrotation
						End Site
						{
							OFFSET 0 0 0
						}
					}
				}
			}
		}
	}
	JOINT RightUpLeg_virtual
	{
		OFFSET 0.000000 0.000000 0.000000
		CHANNELS 3 Xrotation Yrotation Zrotation
		JOINT RightUpLeg
		{
			OFFSET -18.735201 -5.666702 -4.541200
			CHANNELS 3 Xrotation Yrotation Zrotation
			JOINT RightLeg
			{
				OFFSET 0.018946 -31.938133 0.493100
				CHANNELS 3 Xrotation Yrotation Zrotation
				JOINT RightFoot
				{
					OFFSET -0.018946 -31.938126 -4.336299
					CHANNELS 3 Xrotation Yrotation Zrotation
					JOINT RightToeBase
					{
						OFFSET -0.943001 -26.722004 15.023500
						CHANNELS 3 Xrotation Yrotation Zrotation
						End Site
						{
							OFFSET 0 0 0
						}
					}
				}
			}
		}
	}
	JOINT Hips_virtual
	{
		OFFSET 0.000000 0.000000 0.000000
		CHANNELS 3 Xrotation Yrotation Zrotation
		JOINT Hips
		{
			OFFSET -0.000000 -0.000000 -0.000000
			CHANNELS 3 Xrotation Yrotation Zrotation
			JOINT Spine
			{
				OFFSET 0.000000 10.199997 -0.299500
				CHANNELS 3 Xrotation Yrotation Zrotation
				JOINT Spine1
				{
					OFFSET 0.000000 11.900002 -1.516600
					CHANNELS 3 Xrotation Yrotation Zrotation
					JOINT Spine2
					{
						OFFSET 0.000000 13.600006 -2.842500
						CHANNELS 3 Xrotation Yrotation Zrotation
						JOINT Neck_virtual
						{
							OFFSET 0.000000 0.000000 0.000000
							CHANNELS 3 Xrotation Yrotation Zrotation
							JOINT Neck
							{
								OFFSET 0.000000 9.624100 -2.890100
								CHANNELS 3 Xrotation Yrotation Zrotation
								JOINT Head
								{
									OFFSET 0.000000 14.068802 -1.351900
									CHANNELS 3 Xrotation Yrotation Zrotation
									End Site
									{
										OFFSET 0 0 0
									}
								}
							}
						}
						JOINT LeftShoulder_virtual
						{
							OFFSET 0.000000 0.000000 0.000000
							CHANNELS 3 Xrotation Yrotation Zrotation
							JOINT LeftShoulder
							{
								OFFSET 15.263000 10.923401 -0.547700
								CHANNELS 3 Xrotation Yrotation Zrotation
								JOINT LeftArm
								{
									OFFSET 25.438599 -2.830597 -13.032500
									CHANNELS 3 Xrotation Yrotation Zrotation
									JOINT LeftForeArm
									{
										OFFSET 29.960503 0.000000 0.000000
										CHANNELS 3 Xrotation Yrotation Zrotation
										JOINT LeftHand
										{
											OFFSET 27.849251 0.000000 0.000000
											CHANNELS 3 Xrotation Yrotation Zrotation
											End Site
											{
												OFFSET 0 0 0
											}
										}
									}
								}
							}
						}
						JOINT RightShoulder_virtual
						{
							OFFSET 0.000000 0.000000 0.000000
							CHANNELS 3 Xrotation Yrotation Zrotation
							JOINT RightShoulder
							{
								OFFSET -15.263000 10.923401 -0.547700
								CHANNELS 3 Xrotation Yrotation Zrotation
								JOINT RightArm
								{
									OFFSET -25.438599 -2.830597 -13.032500
									CHANNELS 3 Xrotation Yrotation Zrotation
									JOINT RightForeArm
									{
										OFFSET -29.960503 0.000000 0.000000
										CHANNELS 3 Xrotation Yrotation Zrotation
										JOINT RightHand
										{
											OFFSET -27.849251 0.000000 0.000000
											CHANNELS 3 Xrotation Yrotation Zrotation
											End Site
											{
												OFFSET 0 0 0
											}
										}
									}
								}
							}
						}
					}
				}
			}
		}
	}
}
MOTION
Frames: 7
Frame Time: 0.03333333
0.284223 93.212227 4.448351 0.000000 0.000000 0.000000 -2.728465 3.554371 0.772045 -5.013583 11.066557 6.646041 24.178735 -4.384603 1.236074 -16.708405 1.297354 -5.626251 0.000000 0.000000 0.000000 -2.728465 3.554371 0.772045 4.133883 -4.820339 -4.148564 20.060581 -8.888821 4.252453 -19.600321 -19.448697 3.073757 0.000000 0.000000 0.000000 -2.728465 3.554371 0.772045 0.000000 0.000000 0.000000 -0.566807 -0.751004 -3.901987 1.149532 -0.103991 1.499583 0.000000 0.000000 0.000000 1.152621 -0.098084 1.497723 3.383357 0.101585 0.156566 0.000000 0.000000 0.000000 1.152621 -0.098084 1.497723 6.883882 -26.760618 -3.764300 5.911086 4.517237 -79.896356 -0.000002 -18.872940 -0.000002 0.000000 0.000000 0.000000 1.152621 -0.098084 1.497723 0.447593 -3.990811 8.744684 8.902106 19.263659 69.814096 -0.000001 13.419889 -0.000017 0.000000 0.000000 0.000000 
0.277460 93.208374 4.463457 0.000000 0.000000 0.000000 -2.714766 3.542789 0.767456 -5.013774 11.069087 6.656693 24.181974 -4.378210 1.235163 -16.725158 1.300324 -5.635727 0.000000 0.000000 0.000000 -2.714766 3.542789 0.767456 4.133186 -4.821429 -4.144929 20.055075 -8.888428 4.259512 -19.609676 -19.435360 3.068300 0.000000 0.000000 0.000000 -2.714766 3.542789 0.767456 0.000000 0.000000 0.000000 -0.565957 -0.755573 -3.902810 1.145595 -0.104598 1.502204 0.000000 0.000000 0.000000 1.148703 -0.098714 1.500344 3.376725 0.105913 0.152720 0.000000 0.000000 0.000000 1.148703 -0.098714 1.500344 6.880136 -26.751010 -3.764938 5.911937 4.505762 -79.903596 0.000003 -18.867749 0.000004 0.000000 0.000000 0.000000 1.148703 -0.098714 1.500344 0.447802 -3.989255 8.743096 8.906555 19.272808 69.810325 -0.000000 13.433806 -0.000005 0.000000 0.000000 0.000000 
0.270185 93.204704 4.479317 0.000000 0.000000 0.000000 -2.701928 3.531737 0.762452 -5.012432 11.072546 6.668724 24.184385 -4.373210 1.233891 -16.742008 1.303355 -5.645352 0.000000 0.000000 0.000000 -2.701928 3.531737 0.762452 4.136783 -4.822184 -4.139443 20.045149 -8.888363 4.266067 -19.618306 -19.423571 3.062190 0.000000 0.000000 0.000000 -2.701928 3.531737 0.762452 0.000000 0.000000 0.000000 -0.564155 -0.762258 -3.903709 1.142373 -0.105479 1.505871 0.000000 0.000000 0.000000 1.145510 -0.099612 1.504005 3.370625 0.109558 0.149787 0.000000 0.000000 0.000000 1.145510 -0.099612 1.504005 6.876203 -26.741160 -3.765900 5.916046 4.497562 -79.909812 0.000002 -18.862138 0.000015 0.000000 0.000000 0.000000 1.145510 -0.099612 1.504005 0.447137 -3.992707 8.741733 8.916817 19.279766 69.800818 0.000002 13.450140 0.000014 0.000000 0.000000 0.000000 
0.262759 93.201263 4.495943 0.000000 0.000000 0.000000 -2.690639 3.521598 0.757665 -5.008282 11.076106 6.680363 24.185254 -4.368709 1.233417 -16.758583 1.306516 -5.655559 0.000000 0.000000 0.000000 -2.690639 3.521598 0.757665 4.145224 -4.823358 -4.132555 20.031470 -8.889069 4.272114 -19.626692 -19.413798 3.055575 0.000000 0.000000 0.000000 -2.690639 3.521598 0.757665 0.000000 0.000000 0.000000 -0.561841 -0.770633 -3.904911 1.140142 -0.106575 1.510630 0.000000 0.000000 0.000000 1.143316 -0.100721 1.508753 3.365227 0.112615 0.147447 0.000000 0.000000 0.000000 1.143316 -0.100721 1.508753 6.872128 -26.731021 -3.767449 5.921148 4.490975 -79.912783 -0.000005 -18.857095 0.000007 0.000000 0.000000 0.000000 1.143316 -0.100721 1.508753 0.445813 -3.999974 8.740760 8.930335 19.284665 69.787390 -0.000004 13.466609 -0.000003 0.000000 0.000000 0.000000 
0.255460 93.198006 4.513262 0.000000 0.000000 0.000000 -2.680859 3.512222 0.753463 -5.001033 11.078837 6.690035 24.184484 -4.363233 1.234923 -16.774847 1.309911 -5.666895 0.000000 0.000000 0.000000 -2.680859 3.512222 0.753463 4.157622 -4.825581 -4.124950 20.015704 -8.890826 4.278067 -19.635549 -19.405472 3.048567 0.000000 0.000000 0.000000 -2.680859 3.512222 0.753463 0.000000 0.000000 0.000000 -0.560512 -0.779745 -3.906434 1.139017 -0.107762 1.516219 0.000000 0.000000 0.000000 1.142232 -0.101915 1.514326 3.360550 0.114984 0.145668 0.000000 0.000000 0.000000 1.142232 -0.101915 1.514326 6.868264 -26.720788 -3.769765 5.924327 4.484678 -79.910099 0.000002 -18.854213 -0.000001 0.000000 0.000000 0.000000 1.142232 -0.101915 1.514326 0.444131 -4.009369 8.740163 8.941835 19.288171 69.773190 -0.000006 13.479134 -0.000016 0.000000 0.000000 0.000000 
0.248374 93.194878 4.531116 0.000000 0.000000 0.000000 -2.671890 3.502841 0.749808 -4.990714 11.079991 6.696934 24.181269 -4.355022 1.239129 -16.790453 1.313673 -5.680054 0.000000 0.000000 0.000000 -2.671890 3.502841 0.749808 4.172511 -4.829389 -4.117536 19.998353 -8.893693 4.284549 -19.644544 -19.396653 3.041349 0.000000 0.000000 0.000000 -2.671890 3.502841 0.749808 0.000000 0.000000 0.000000 -0.561783 -0.788600 -3.908121 1.138930 -0.108910 1.522172 0.000000 0.000000 0.000000 1.142190 -0.103070 1.520263 3.356689 0.116669 0.144383 0.000000 0.000000 0.000000 1.142190 -0.103070 1.520263 6.865210 -26.710978 -3.772874 5.922940 4.477944 -79.899662 -0.000003 -18.855803 0.000020 0.000000 0.000000 0.000000 1.142190 -0.103070 1.520263 0.442386 -4.019247 8.739768 8.943410 19.291999 69.761585 0.000002 13.482281 -0.000007 0.000000 0.000000 0.000000 
0.241412 93.191719 4.549286 0.000000 0.000000 0.000000 -2.662770 3.492093 0.746415 -4.978679 11.079052 6.700870 24.177039 -4.342154 1.246482 -16.806333 1.317946 -5.695579 0.000000 0.000000 0.000000 -2.662770 3.492093 0.746415 4.186495 -4.835274 -4.111810 19.982786 -8.897278 4.292858 -19.654402 -19.384179 3.034121 0.000000 0.000000 0.000000 -2.662770 3.492093 0.746415 0.000000 0.000000 0.000000 -0.565978 -0.796710 -3.909740 1.139501 -0.109953 1.527966 0.000000 0.000000 0.000000 1.142801 -0.104127 1.526041 3.353561 0.117787 0.143510 0.000000 0.000000 0.000000 1.142801 -0.104127 1.526041 6.863711 -26.702452 -3.776576 5.915652 4.470641 -79.880565 0.000000 -18.864965 0.000015 0.000000 0.000000 0.000000 1.142801 -0.104127 1.526041 0.440766 -4.028572 8.739296 8.925569 19.299314 69.755916 0.000003 13.470425 -0.000017 0.000000 0.000000 0.000000 
